<?xml version="1.0" encoding="UTF-8"?>
<svg xmlns="http://www.w3.org/2000/svg" width="280" height="44" viewBox="0 0 280 44" fill="none"><path fill-rule="evenodd" clip-rule="evenodd" d="M21.8549 4.12533C20.827 3.54525 19.5668 3.54796 18.541 4.13345L5.47855 11.5891C4.43924 12.1823 3.79993 13.2824 3.79993 14.4718V29.3231C3.79993 30.5616 4.26085 31.4195 4.78596 31.7274C7.28767 33.1944 9.50869 34.4495 11.8613 35.7601C12.8034 36.137 13.8773 36.0696 14.7723 35.5588L14.7743 35.5577L27.7319 28.2057C27.7326 28.2053 27.7333 28.2049 27.734 28.2045C28.7721 27.611 29.4105 26.5116 29.4105 25.323V18.4358C29.4105 16.5868 27.4237 15.4874 25.9467 16.3304L25.8106 16.4081V21.2205C25.8106 23.6993 24.4782 25.9871 22.3204 27.2186L16.3137 30.646C12.3356 32.9798 7.39981 29.9742 7.39981 25.4718V18.5743C7.39981 16.0955 8.7323 13.8077 10.89 12.5762L10.8921 12.575L23.7685 5.26998L21.8549 4.12533ZM28.7109 8.22635C28.029 7.81846 26.6972 7.73521 25.7408 8.28113L25.7387 8.2823L12.6783 15.6917C12.6778 15.692 12.6773 15.6923 12.6767 15.6926C11.6384 16.286 10.9997 17.3856 10.9997 18.5743V25.4718C10.9997 27.3206 13.0174 28.4193 14.4934 27.549L14.5044 27.5425L20.5321 24.1031C20.5322 24.1031 20.5323 24.1031 20.5323 24.103C21.5715 23.5098 22.2108 22.4097 22.2108 21.2205V14.3266L24.1584 13.2149C28.1669 10.927 33.0104 13.9821 33.0104 18.4358V25.323C33.0104 27.8019 31.6779 30.0896 29.5202 31.3212L29.5182 31.3223L16.5606 38.6743C16.5598 38.6748 16.5589 38.6753 16.5581 38.6757C14.6501 39.7637 12.3533 39.8802 10.362 39.0259L10.2767 38.9893L10.1957 38.9442C7.7967 37.6082 5.52595 36.3257 2.96117 34.8218C0.864769 33.5925 0.200043 31.1727 0.200043 29.3231V14.4718C0.200043 11.9929 1.53253 9.70518 3.69026 8.47361L16.7527 1.01796C18.8911 -0.202592 21.5191 -0.202592 23.6575 1.01796L23.6735 1.02708L30.5616 5.1473C30.562 5.14753 30.5623 5.14775 30.5627 5.14797L28.7109 8.22635Z" fill="#E66D45"/><path fill-rule="evenodd" clip-rule="evenodd" d="M18.5553 39.7721C19.5832 40.3521 20.8434 40.3494 21.8692 39.7639L34.9317 32.3083C35.971 31.7151 36.6103 30.615 36.6103 29.4256V14.5743C36.6103 13.3358 36.1494 12.4779 35.6243 12.17C33.1225 10.703 30.9015 9.44785 28.549 8.13726C27.6069 7.76044 26.5329 7.82775 25.6379 8.3386L25.6359 8.33974L12.6783 15.6917C12.6776 15.6921 12.6769 15.6925 12.6762 15.6929C11.6382 16.2864 10.9997 17.3858 10.9997 18.5744V25.4616C10.9997 27.3106 12.9866 28.41 14.4635 27.567L14.5996 27.4893V22.6769C14.5996 20.1981 15.9321 17.9103 18.0898 16.6788L24.0965 13.2514C28.0747 10.9176 33.0104 13.9232 33.0104 18.4256V25.3231C33.0104 27.8019 31.6779 30.0896 29.5202 31.3212L29.5182 31.3224L16.6417 38.6274L18.5553 39.7721ZM11.6993 35.671C12.3812 36.0789 13.713 36.1622 14.6695 35.6163L14.6715 35.6151L27.7319 28.2057C27.7324 28.2054 27.7329 28.2051 27.7335 28.2048C28.7719 27.6114 29.4105 26.5118 29.4105 25.3231V18.4256C29.4105 16.5768 27.3929 15.4781 25.9169 16.3484L25.9058 16.3549L19.8781 19.7943C19.878 19.7943 19.8779 19.7943 19.8779 19.7944C18.8387 20.3876 18.1995 21.4877 18.1995 22.6769V29.5708L16.2518 30.6825C12.2433 32.9704 7.3998 29.9153 7.3998 25.4616V18.5744C7.3998 16.0955 8.7323 13.8078 10.89 12.5762L10.892 12.5751L23.8496 5.22311C23.8505 5.22262 23.8513 5.22214 23.8522 5.22165C25.7601 4.1337 28.0569 4.01718 30.0482 4.87147L30.1335 4.90805L30.2145 4.95318C32.6135 6.28919 34.8843 7.57165 37.449 9.07562C39.5454 10.3049 40.2102 12.7247 40.2102 14.5743V29.4256C40.2102 31.9045 38.8777 34.1922 36.72 35.4238L23.6575 42.8794C21.5191 44.1 18.8911 44.1 16.7527 42.8794L16.7367 42.8703L9.84864 38.7501C9.84826 38.7499 9.84789 38.7496 9.84752 38.7494L11.6993 35.671Z" fill="#E66D45"/><path d="M56.0671 31.9603C55.8519 31.9603 55.6758 31.8912 55.5388 31.753C55.4018 31.595 55.3333 31.4174 55.3333 31.2199V11.9711C55.3333 11.7539 55.4018 11.5763 55.5388 11.4381C55.6953 11.2999 55.8715 11.2308 56.0671 11.2308H59.2666C59.4819 11.2308 59.658 11.2999 59.795 11.4381C59.932 11.5763 60.0005 11.7539 60.0005 11.9711V24.7642L69.0119 11.7638C69.1097 11.6256 69.2271 11.5072 69.3641 11.4085C69.5207 11.29 69.7163 11.2308 69.9512 11.2308H72.8278C73.043 11.2308 73.2191 11.2999 73.3561 11.4381C73.4931 11.5763 73.5616 11.7539 73.5616 11.9711V31.2199C73.5616 31.4371 73.4931 31.6148 73.3561 31.753C73.2191 31.8912 73.043 31.9603 72.8278 31.9603H69.6283C69.4326 31.9603 69.2565 31.8912 69.0999 31.753C68.9629 31.6148 68.8945 31.4371 68.8945 31.2199V18.8118L59.883 31.4272C59.8243 31.5457 59.7265 31.6641 59.5895 31.7826C59.4525 31.901 59.2471 31.9603 58.9731 31.9603H56.0671Z" fill="#266980"/><path d="M78.2744 31.9603C78.0787 31.9603 77.9124 31.8912 77.7754 31.753C77.6384 31.6148 77.5699 31.4371 77.5699 31.2199V17.3016C77.5699 17.0844 77.6384 16.9067 77.7754 16.7685C77.9124 16.6303 78.0787 16.5612 78.2744 16.5612H81.2097C81.4249 16.5612 81.6011 16.6303 81.738 16.7685C81.875 16.9067 81.9435 17.0844 81.9435 17.3016V22.3951H87.9022V17.3016C87.9022 17.0844 87.9707 16.9067 88.1077 16.7685C88.2447 16.6303 88.4208 16.5612 88.636 16.5612H91.5713C91.767 16.5612 91.9334 16.6303 92.0703 16.7685C92.2073 16.9067 92.2758 17.0844 92.2758 17.3016V31.2199C92.2758 31.4371 92.2073 31.6148 92.0703 31.753C91.9334 31.8912 91.767 31.9603 91.5713 31.9603H88.636C88.4208 31.9603 88.2447 31.8912 88.1077 31.753C87.9707 31.6148 87.9022 31.4371 87.9022 31.2199V25.8895H81.9435V31.2199C81.9435 31.4371 81.875 31.6148 81.738 31.753C81.6011 31.8912 81.4249 31.9603 81.2097 31.9603H78.2744Z" fill="#266980"/><path d="M100.697 31.9603C100.481 31.9603 100.305 31.8912 100.168 31.753C100.031 31.6148 99.9629 31.4371 99.9629 31.2199V20.0556H95.3545C95.1392 20.0556 94.9631 19.9865 94.8261 19.8483C94.6891 19.7101 94.6206 19.5324 94.6206 19.3153V17.3016C94.6206 17.0844 94.6891 16.9067 94.8261 16.7685C94.9631 16.6303 95.1392 16.5612 95.3545 16.5612H108.886C109.101 16.5612 109.278 16.6303 109.415 16.7685C109.552 16.9067 109.62 17.0844 109.62 17.3016V19.3153C109.62 19.5324 109.552 19.7101 109.415 19.8483C109.278 19.9865 109.101 20.0556 108.886 20.0556H104.278V31.2199C104.278 31.4371 104.209 31.6148 104.072 31.753C103.935 31.8912 103.769 31.9603 103.573 31.9603H100.697Z" fill="#266980"/><path d="M118.692 32.2564C116.442 32.2564 114.651 31.6247 113.32 30.3611C112.009 29.0976 111.315 27.2616 111.236 24.853C111.236 24.6951 111.236 24.4878 111.236 24.2311C111.236 23.9547 111.236 23.7376 111.236 23.5796C111.315 22.0595 111.657 20.7565 112.264 19.6706C112.87 18.5651 113.722 17.726 114.817 17.1535C115.913 16.5612 117.195 16.2651 118.663 16.2651C120.306 16.2651 121.676 16.6106 122.772 17.3016C123.888 17.9728 124.719 18.9007 125.267 20.0852C125.835 21.25 126.118 22.5925 126.118 24.1127V24.7938C126.118 24.9912 126.04 25.159 125.884 25.2972C125.747 25.4354 125.58 25.5045 125.385 25.5045H115.786C115.786 25.5243 115.786 25.5637 115.786 25.623C115.786 25.6625 115.786 25.7019 115.786 25.7414C115.806 26.3732 115.923 26.9556 116.138 27.4886C116.373 28.0019 116.696 28.4165 117.107 28.7324C117.537 29.0483 118.046 29.2062 118.633 29.2062C119.123 29.2062 119.524 29.1371 119.837 28.9989C120.15 28.8607 120.404 28.6929 120.6 28.4955C120.815 28.2981 120.972 28.1303 121.07 27.9921C121.246 27.7946 121.383 27.6762 121.481 27.6367C121.598 27.5775 121.774 27.5479 122.009 27.5479H125.062C125.257 27.5479 125.414 27.6071 125.531 27.7255C125.668 27.8242 125.727 27.9723 125.707 28.1697C125.688 28.4856 125.522 28.8805 125.208 29.3543C124.915 29.8084 124.475 30.2624 123.888 30.7165C123.3 31.1508 122.567 31.5161 121.686 31.8122C120.825 32.1083 119.827 32.2564 118.692 32.2564ZM115.786 22.8097H121.539V22.7505C121.539 22.0397 121.422 21.4277 121.187 20.9144C120.972 20.3814 120.649 19.9668 120.218 19.6706C119.788 19.3745 119.269 19.2264 118.663 19.2264C118.056 19.2264 117.537 19.3745 117.107 19.6706C116.676 19.9668 116.344 20.3814 116.109 20.9144C115.894 21.4277 115.786 22.0397 115.786 22.7505V22.8097Z" fill="#266980"/><path d="M128.671 31.9603C128.475 31.9603 128.299 31.8912 128.143 31.753C128.006 31.595 127.937 31.4174 127.937 31.2199V28.9989C127.937 28.5646 128.172 28.3277 128.642 28.2882C129.209 28.229 129.649 27.9624 129.962 27.4886C130.295 26.9951 130.53 26.2449 130.667 25.238C130.804 24.2311 130.872 22.938 130.872 21.3586V17.3016C130.872 17.0844 130.941 16.9067 131.078 16.7685C131.215 16.6303 131.391 16.5612 131.606 16.5612H142.555C142.77 16.5612 142.946 16.6303 143.083 16.7685C143.22 16.9067 143.289 17.0844 143.289 17.3016V31.2199C143.289 31.4371 143.22 31.6148 143.083 31.753C142.946 31.8912 142.77 31.9603 142.555 31.9603H139.62C139.424 31.9603 139.248 31.8912 139.091 31.753C138.954 31.6148 138.886 31.4371 138.886 31.2199V20.0556H135.07V21.862C135.07 23.7376 134.962 25.3268 134.747 26.6298C134.551 27.9328 134.209 28.9792 133.72 29.7689C133.23 30.5388 132.575 31.1015 131.753 31.4568C130.931 31.7925 129.904 31.9603 128.671 31.9603Z" fill="#266980"/><path d="M154.618 31.9603C154.403 31.9603 154.227 31.8912 154.09 31.753C153.953 31.6148 153.884 31.4371 153.884 31.2199V11.9711C153.884 11.7539 153.953 11.5763 154.09 11.4381C154.227 11.2999 154.403 11.2308 154.618 11.2308H157.817C158.033 11.2308 158.209 11.2999 158.346 11.4381C158.483 11.5763 158.551 11.7539 158.551 11.9711V19.3745H160.723L165.273 11.7934C165.371 11.6355 165.508 11.5072 165.684 11.4085C165.86 11.29 166.085 11.2308 166.359 11.2308H169.911C170.107 11.2308 170.253 11.2999 170.351 11.4381C170.469 11.5565 170.527 11.6947 170.527 11.8527C170.527 11.9711 170.488 12.0896 170.41 12.208L164.921 21.2105L170.968 30.9534C171.007 31.0324 171.026 31.141 171.026 31.2792C171.026 31.4766 170.958 31.6444 170.821 31.7826C170.703 31.901 170.557 31.9603 170.381 31.9603H166.711C166.418 31.9603 166.203 31.901 166.066 31.7826C165.929 31.6444 165.821 31.5259 165.743 31.4272L160.9 23.5796H158.551V31.2199C158.551 31.4371 158.483 31.6148 158.346 31.753C158.209 31.8912 158.033 31.9603 157.817 31.9603H154.618Z" fill="#266980"/><path d="M180.642 32.2564C179.017 32.2564 177.657 31.9899 176.561 31.4568C175.466 30.9041 174.624 30.1242 174.037 29.1174C173.47 28.1105 173.157 26.9358 173.098 25.5934C173.078 25.1985 173.068 24.7543 173.068 24.2607C173.068 23.7474 173.078 23.3032 173.098 22.9281C173.157 21.5659 173.489 20.3912 174.096 19.4041C174.702 18.3973 175.554 17.6273 176.65 17.0943C177.745 16.5415 179.076 16.2651 180.642 16.2651C182.187 16.2651 183.508 16.5415 184.604 17.0943C185.7 17.6273 186.551 18.3973 187.158 19.4041C187.765 20.3912 188.097 21.5659 188.156 22.9281C188.195 23.3032 188.215 23.7474 188.215 24.2607C188.215 24.7543 188.195 25.1985 188.156 25.5934C188.097 26.9358 187.774 28.1105 187.187 29.1174C186.62 30.1242 185.788 30.9041 184.692 31.4568C183.596 31.9899 182.246 32.2564 180.642 32.2564ZM180.642 28.9989C181.6 28.9989 182.324 28.7028 182.814 28.1105C183.303 27.4985 183.567 26.6101 183.606 25.4453C183.626 25.1492 183.636 24.7543 183.636 24.2607C183.636 23.7672 183.626 23.3723 183.606 23.0762C183.567 21.9311 183.303 21.0526 182.814 20.4406C182.324 19.8286 181.6 19.5226 180.642 19.5226C179.683 19.5226 178.949 19.8286 178.44 20.4406C177.951 21.0526 177.687 21.9311 177.648 23.0762C177.628 23.3723 177.618 23.7672 177.618 24.2607C177.618 24.7543 177.628 25.1492 177.648 25.4453C177.687 26.6101 177.951 27.4985 178.44 28.1105C178.949 28.7028 179.683 28.9989 180.642 28.9989Z" fill="#266980"/><path d="M190.903 31.9603C190.707 31.9603 190.531 31.8912 190.375 31.753C190.238 31.595 190.169 31.4174 190.169 31.2199V28.9989C190.169 28.5646 190.404 28.3277 190.874 28.2882C191.441 28.229 191.881 27.9624 192.195 27.4886C192.527 26.9951 192.762 26.2449 192.899 25.238C193.036 24.2311 193.104 22.938 193.104 21.3586V17.3016C193.104 17.0844 193.173 16.9067 193.31 16.7685C193.447 16.6303 193.623 16.5612 193.838 16.5612H204.787C205.002 16.5612 205.178 16.6303 205.315 16.7685C205.452 16.9067 205.521 17.0844 205.521 17.3016V31.2199C205.521 31.4371 205.452 31.6148 205.315 31.753C205.178 31.8912 205.002 31.9603 204.787 31.9603H201.852C201.656 31.9603 201.48 31.8912 201.323 31.753C201.186 31.6148 201.118 31.4371 201.118 31.2199V20.0556H197.302V21.862C197.302 23.7376 197.194 25.3268 196.979 26.6298C196.783 27.9328 196.441 28.9792 195.952 29.7689C195.463 30.5388 194.807 31.1015 193.985 31.4568C193.163 31.7925 192.136 31.9603 190.903 31.9603Z" fill="#266980"/><path d="M208.933 31.9603C208.738 31.9603 208.562 31.8912 208.405 31.753C208.268 31.595 208.2 31.4174 208.2 31.2199V28.9989C208.2 28.5646 208.434 28.3277 208.904 28.2882C209.472 28.229 209.912 27.9624 210.225 27.4886C210.558 26.9951 210.792 26.2449 210.929 25.238C211.066 24.2311 211.135 22.938 211.135 21.3586V17.3016C211.135 17.0844 211.203 16.9067 211.34 16.7685C211.477 16.6303 211.653 16.5612 211.869 16.5612H222.817C223.033 16.5612 223.209 16.6303 223.346 16.7685C223.483 16.9067 223.551 17.0844 223.551 17.3016V31.2199C223.551 31.4371 223.483 31.6148 223.346 31.753C223.209 31.8912 223.033 31.9603 222.817 31.9603H219.882C219.686 31.9603 219.51 31.8912 219.354 31.753C219.217 31.6148 219.148 31.4371 219.148 31.2199V20.0556H215.332V21.862C215.332 23.7376 215.225 25.3268 215.009 26.6298C214.814 27.9328 214.471 28.9792 213.982 29.7689C213.493 30.5388 212.837 31.1015 212.015 31.4568C211.194 31.7925 210.166 31.9603 208.933 31.9603Z" fill="#266980"/><path d="M234.155 32.2564C231.905 32.2564 230.114 31.6247 228.784 30.3611C227.473 29.0976 226.778 27.2616 226.7 24.853C226.7 24.6951 226.7 24.4878 226.7 24.2311C226.7 23.9547 226.7 23.7376 226.7 23.5796C226.778 22.0595 227.12 20.7565 227.727 19.6706C228.334 18.5651 229.185 17.726 230.281 17.1535C231.376 16.5612 232.658 16.2651 234.126 16.2651C235.77 16.2651 237.139 16.6106 238.235 17.3016C239.351 17.9728 240.182 18.9007 240.73 20.0852C241.298 21.25 241.582 22.5925 241.582 24.1127V24.7938C241.582 24.9912 241.503 25.159 241.347 25.2972C241.21 25.4354 241.043 25.5045 240.848 25.5045H231.249C231.249 25.5243 231.249 25.5637 231.249 25.623C231.249 25.6625 231.249 25.7019 231.249 25.7414C231.269 26.3732 231.386 26.9556 231.602 27.4886C231.836 28.0019 232.159 28.4165 232.57 28.7324C233.001 29.0483 233.509 29.2062 234.097 29.2062C234.586 29.2062 234.987 29.1371 235.3 28.9989C235.613 28.8607 235.868 28.6929 236.063 28.4955C236.278 28.2981 236.435 28.1303 236.533 27.9921C236.709 27.7946 236.846 27.6762 236.944 27.6367C237.061 27.5775 237.237 27.5479 237.472 27.5479H240.525C240.721 27.5479 240.877 27.6071 240.995 27.7255C241.132 27.8242 241.19 27.9723 241.171 28.1697C241.151 28.4856 240.985 28.8805 240.672 29.3543C240.378 29.8084 239.938 30.2624 239.351 30.7165C238.764 31.1508 238.03 31.5161 237.149 31.8122C236.288 32.1083 235.29 32.2564 234.155 32.2564ZM231.249 22.8097H237.003V22.7505C237.003 22.0397 236.885 21.4277 236.65 20.9144C236.435 20.3814 236.112 19.9668 235.682 19.6706C235.251 19.3745 234.733 19.2264 234.126 19.2264C233.519 19.2264 233.001 19.3745 232.57 19.6706C232.14 19.9668 231.807 20.3814 231.572 20.9144C231.357 21.4277 231.249 22.0397 231.249 22.7505V22.8097Z" fill="#266980"/><path d="M245.22 31.9603C245.025 31.9603 244.858 31.8912 244.721 31.753C244.584 31.6148 244.516 31.4371 244.516 31.2199V17.3016C244.516 17.0844 244.584 16.9067 244.721 16.7685C244.858 16.6303 245.025 16.5612 245.22 16.5612H248.097C248.312 16.5612 248.488 16.6303 248.625 16.7685C248.762 16.9067 248.831 17.0844 248.831 17.3016V22.3951H250.68L254.085 17.035C254.144 16.9166 254.232 16.808 254.349 16.7093C254.486 16.6106 254.662 16.5612 254.877 16.5612H258.077C258.253 16.5612 258.4 16.6204 258.517 16.7389C258.654 16.8376 258.723 16.9659 258.723 17.1239C258.723 17.1831 258.703 17.2522 258.664 17.3312C258.644 17.4101 258.615 17.4792 258.576 17.5385L254.437 23.9942L259.222 31.0126C259.3 31.1311 259.339 31.2594 259.339 31.3976C259.339 31.5556 259.28 31.6938 259.163 31.8122C259.046 31.9109 258.899 31.9603 258.723 31.9603H255.171C254.975 31.9603 254.809 31.9208 254.672 31.8418C254.555 31.7431 254.447 31.6247 254.349 31.4865L250.651 25.9191H248.831V31.2199C248.831 31.4371 248.762 31.6148 248.625 31.753C248.488 31.8912 248.312 31.9603 248.097 31.9603H245.22Z" fill="#266980"/><path d="M266.41 31.9603C266.195 31.9603 266.019 31.8912 265.882 31.753C265.745 31.6148 265.676 31.4371 265.676 31.2199V20.0556H261.068C260.852 20.0556 260.676 19.9865 260.539 19.8483C260.402 19.7101 260.334 19.5324 260.334 19.3153V17.3016C260.334 17.0844 260.402 16.9067 260.539 16.7685C260.676 16.6303 260.852 16.5612 261.068 16.5612H274.599C274.815 16.5612 274.991 16.6303 275.128 16.7685C275.265 16.9067 275.333 17.0844 275.333 17.3016V19.3153C275.333 19.5324 275.265 19.7101 275.128 19.8483C274.991 19.9865 274.815 20.0556 274.599 20.0556H269.991V31.2199C269.991 31.4371 269.923 31.6148 269.786 31.753C269.649 31.8912 269.482 31.9603 269.287 31.9603H266.41Z" fill="#266980"/></svg>